<svg width="742" height="742" viewBox="0 0 742 742" fill="none" xmlns="http://www.w3.org/2000/svg">
<path d="M737 309L740.5 332L742 355.25V401.75L733.5 451.25L723.5 491.25L706.5 532.5L685 571.5L656 609.5L622 644.75L580 677.5L530.5 707L473 728.5L415.5 739.5L413 600.5L480.5 527.75L553.5 456.75L737 309Z" fill="white"/>
<path d="M62.5 163.5L177.5 227.5L245.5 269.5L282.5 301L315.5 334L343.5 366L364.5 398V741.5L325 739L285 731.5L244.5 720L204.5 702.5L166.5 680L129.5 652.5L94 617L63 578L36 529.5L15 476.5L4 425.5L0 395.5V365.5L2 337L9 288.5L19 256L35.5 210L62.5 163.5Z" fill="white"/>
<path d="M222 31L263.5 15L313 3.5L344 0H374.5L364.5 329.5L309 280L245 234.5L191.5 205.5L140 178L99 157L77.5 144L104 112.5L140 79.5L179.5 52L222 31Z" fill="white"/>
<path d="M403.5 1.5L454.5 7.5L514.5 25.5L569.5 52.5L612 85L654.5 126.5L691.5 177.5L715.5 228L731.5 284.5L654.5 336.5L566 398.5L409.5 523.5L403.5 1.5Z" fill="white"/>
</svg>
